<svg viewBox="0 0 24 24" fill="none"
    xmlns="http://www.w3.org/2000/svg">
    <path d="M12.93 4.78999H7.35C3.25 4.78999 2 6.03999 2 10.14V13.86C2 17.96 3.25 19.21 7.35 19.21H12.93C17.03 19.21 18.28 17.96 18.28 13.86V10.14C18.28 6.03999 17.03 4.78999 12.93 4.78999Z"/>
    <path d="M20.4202 9C20.2802 8.99 20.1002 8.98 19.9002 8.98C19.5102 8.98 19.2002 9.29 19.2002 9.68V14.33C19.2002 14.72 19.5102 15.03 19.9002 15.03C20.1002 15.03 20.2702 15.02 20.4402 15.01C22.0002 14.83 22.0002 13.73 22.0002 12.93V11.07C22.0002 10.27 22.0002 9.17 20.4202 9Z"/>
</svg>
